# xmcd
#
# Track frame offsets:
# 150
# 12581
# 23211
#
# Disc length: 486 seconds
#
# Revision: 2
# Processed by: cddbd v1.5.1PL2 Copyright (c) Steve Scherf et al.
# Submitted via: Audio-CD-Archiv 4.00.530
#
DISCID=1c01e403
DTITLE=Patsy Cline - I Fall To Pieces (Maxi-CD)
DYEAR=1991
DGENRE=country
TTITLE0=Krohn and Co - I fall to pieces
TTITLE1=Krohn and Co - Crazy (live)
TTITLE2=Krohn and Co - She's got you
EXTD=
EXTT0=
EXTT1=
EXTT2=
PLAYORDER=
